<svg width="23" height="23" viewBox="0 0 23 23" fill="none" xmlns="http://www.w3.org/2000/svg">
<path d="M10.0625 1.4375H7.90625C7.33438 1.4375 6.78593 1.66468 6.38155 2.06905C5.97718 2.47343 5.75 3.02188 5.75 3.59375V19.4062C5.75 19.9781 5.97718 20.5266 6.38155 20.9309C6.78593 21.3353 7.33438 21.5625 7.90625 21.5625H15.0937C15.6656 21.5625 16.2141 21.3353 16.6184 20.9309C17.0228 20.5266 17.25 19.9781 17.25 19.4062V3.59375C17.25 3.02188 17.0228 2.47343 16.6184 2.06905C16.2141 1.66468 15.6656 1.4375 15.0937 1.4375H12.9375M10.0625 1.4375V2.875H12.9375V1.4375M10.0625 1.4375H12.9375M10.0625 19.4062H12.9375" stroke="white" stroke-width="1.4375" stroke-linecap="round" stroke-linejoin="round"/>
</svg>
