<svg width="20" height="20" viewBox="0 0 20 20" fill="none" xmlns="http://www.w3.org/2000/svg">
<path d="M6.97186 15.1959V16.1998C6.97191 16.5926 6.89455 16.9816 6.7442 17.3446C6.59385 17.7076 6.37346 18.0373 6.09562 18.3151L5.47658 18.9341H14.4483L13.8292 18.3151C13.5514 18.0373 13.331 17.7076 13.1807 17.3446C13.0303 16.9816 12.953 16.5926 12.953 16.1998V15.1959M18.9341 3.23365V12.953C18.9341 13.5479 18.6978 14.1184 18.2772 14.539C17.8566 14.9596 17.2861 15.1959 16.6912 15.1959H3.23365C2.63879 15.1959 2.06829 14.9596 1.64766 14.539C1.22703 14.1184 0.990723 13.5479 0.990723 12.953V3.23365M18.9341 3.23365C18.9341 2.63879 18.6978 2.06829 18.2772 1.64766C17.8566 1.22703 17.2861 0.990723 16.6912 0.990723H3.23365C2.63879 0.990723 2.06829 1.22703 1.64766 1.64766C1.22703 2.06829 0.990723 2.63879 0.990723 3.23365M18.9341 3.23365V9.96243C18.9341 10.5573 18.6978 11.1278 18.2772 11.5484C17.8566 11.969 17.2861 12.2054 16.6912 12.2054H3.23365C2.63879 12.2054 2.06829 11.969 1.64766 11.5484C1.22703 11.1278 0.990723 10.5573 0.990723 9.96243V3.23365" stroke="#8F6BDD" stroke-width="1.99371" stroke-linecap="round" stroke-linejoin="round"/>
</svg>
