<svg width="24" height="20" viewBox="0 0 24 20" fill="none" xmlns="http://www.w3.org/2000/svg">
<path d="M4.24683 8.11514C3.97264 10.2141 3.80927 12.326 3.75738 14.4422C6.62713 15.6409 9.37484 17.1131 11.9625 18.8383C14.5505 17.113 17.2985 15.6409 20.1686 14.4422C20.1167 12.326 19.9533 10.2141 19.6792 8.11514M19.6792 8.11514C20.5514 7.82206 21.4356 7.55092 22.3288 7.3037C19.0756 5.02314 15.603 3.07293 11.9625 1.48206C8.32197 3.07326 4.84933 5.02381 1.59619 7.30469C2.48666 7.55054 3.3702 7.82079 4.24584 8.11514C6.90607 9.00953 9.48721 10.1239 11.9625 11.4466C14.4374 10.1239 17.0192 9.00951 19.6792 8.11514ZM6.729 12.9529C6.92729 12.9529 7.11746 12.8741 7.25767 12.7339C7.39788 12.5937 7.47665 12.4035 7.47665 12.2052C7.47665 12.007 7.39788 11.8168 7.25767 11.6766C7.11746 11.5364 6.92729 11.4576 6.729 11.4576C6.53072 11.4576 6.34055 11.5364 6.20034 11.6766C6.06013 11.8168 5.98136 12.007 5.98136 12.2052C5.98136 12.4035 6.06013 12.5937 6.20034 12.7339C6.34055 12.8741 6.53072 12.9529 6.729 12.9529ZM6.729 12.9529V9.28943C8.4204 8.23809 10.1675 7.27904 11.9625 6.41649M4.97753 17.9302C5.53375 17.3753 5.97482 16.716 6.2754 15.9902C6.57598 15.2643 6.73013 14.4862 6.729 13.7005V12.2052" stroke="#8F6BDD" stroke-width="1.99371" stroke-linecap="round" stroke-linejoin="round"/>
</svg>
