<svg width="21" height="20" viewBox="0 0 21 20" fill="none" xmlns="http://www.w3.org/2000/svg">
<path d="M10.2949 3.98154V9.96267H14.7808M19.2667 9.96267C19.2667 11.1409 19.0346 12.3075 18.5837 13.396C18.1329 14.4845 17.472 15.4735 16.6389 16.3066C15.8058 17.1397 14.8168 17.8006 13.7283 18.2515C12.6398 18.7023 11.4731 18.9344 10.2949 18.9344C9.11677 18.9344 7.95012 18.7023 6.86163 18.2515C5.77313 17.8006 4.78409 17.1397 3.95099 16.3066C3.11789 15.4735 2.45704 14.4845 2.00617 13.396C1.5553 12.3075 1.32324 11.1409 1.32324 9.96267C1.32324 7.58323 2.26847 5.30124 3.95099 3.61872C5.63352 1.9362 7.9155 0.990967 10.2949 0.990967C12.6744 0.990967 14.9564 1.9362 16.6389 3.61872C18.3214 5.30124 19.2667 7.58323 19.2667 9.96267Z" stroke="#8F6BDD" stroke-width="1.99371" stroke-linecap="round" stroke-linejoin="round"/>
</svg>
