<svg width="21" height="22" viewBox="0 0 21 22" fill="none" xmlns="http://www.w3.org/2000/svg">
<path d="M19.6016 6.47642L17.3587 5.16754M19.6016 6.47642V8.71934M19.6016 6.47642L17.3587 7.78529M1.6582 6.47642L3.90113 5.16754M1.6582 6.47642L3.90113 7.78529M1.6582 6.47642V8.71934M10.6299 11.7099L12.8728 10.401M10.6299 11.7099L8.38698 10.401M10.6299 11.7099V13.9528M10.6299 20.6816L12.8728 19.3727M10.6299 20.6816V18.4387M10.6299 20.6816L8.38698 19.3727M8.38698 2.5508L10.6299 1.24292L12.8728 2.55179M19.6016 13.2052V15.4481L17.3587 16.757M3.90113 16.757L1.6582 15.4481V13.2052" stroke="#8F6BDD" stroke-width="1.99371" stroke-linecap="round" stroke-linejoin="round"/>
</svg>
