<svg width="1157" height="233" viewBox="0 0 1157 233" fill="none" xmlns="http://www.w3.org/2000/svg">
<g clip-path="url(#clip0_5208_6848)">
<path d="M900.06 198.108H854.868V86.3833H814.447V55H940.482V86.3833H900.06V198.108Z" fill="#070C54"/>
<path d="M755.9 55H801.092V198.108H755.9V55Z" fill="#070C54"/>
<path d="M742.546 55V144.893C742.546 157.372 741.393 165.151 739.087 172.868C736.78 180.584 732.662 186.413 726.731 190.354C720.965 194.294 709.814 198.925 700.594 199.93C690.161 201.067 685.524 201.067 669.294 200.869V160.193C673.931 160.193 680.52 160.185 686.451 159.857C693.401 159.472 697.954 159.214 698.055 152.254C698.062 151.753 698.066 151.236 698.066 150.702C698.066 144.463 698.066 143.251 698.066 142.431V55H742.546Z" fill="#070C54"/>
<path d="M369 71.0112C372.57 69.1385 377.269 67.2659 383.095 65.3932C388.922 63.3333 395.312 61.5543 402.266 60.0562C409.22 58.5581 416.174 57.3408 423.127 56.4045C430.269 55.4682 436.847 55 442.862 55C455.642 55 468.861 56.6854 477.882 60.0562C486.904 63.2397 493.764 68.4831 498.462 75.7865C503.349 83.0898 505.792 93.0148 505.792 105.562V201.067H461.468V113.989C461.468 110.43 460.904 107.153 459.777 104.157C458.837 101.161 457.333 98.6328 455.266 96.5729C453.199 94.3257 450.379 92.6403 446.808 91.5167C443.237 90.2059 438.915 89.5504 433.84 89.5504C429.518 89.5504 425.195 90.1122 420.872 91.2358C416.549 92.1721 415.579 93.2021 413.324 94.3257V201.067H369V71.0112Z" fill="#070C54"/>
<path d="M1090.63 185.057C1087.06 186.93 1082.36 188.802 1076.53 190.675C1070.71 192.735 1064.32 194.514 1057.36 196.012C1050.41 197.51 1043.46 198.727 1036.5 199.664C1029.36 200.6 1022.78 201.068 1016.77 201.068C1003.99 201.068 990.769 199.383 981.748 196.012C972.727 192.829 965.867 187.585 961.168 180.282C956.282 172.978 953.838 163.053 953.838 150.507V55.002H998.162V142.08C998.162 145.638 998.726 148.915 999.854 151.911C1000.79 154.907 1002.3 157.435 1004.36 159.495C1006.43 161.743 1009.25 163.428 1012.82 164.552C1016.39 165.862 1020.72 166.518 1025.79 166.518C1030.11 166.518 1034.44 165.956 1038.76 164.832C1043.08 163.896 1044.05 162.866 1046.31 161.743V55.002H1090.63V185.057Z" fill="#070C54"/>
<path d="M655.939 185.057C652.368 186.93 647.67 188.802 641.844 190.675C636.017 192.735 629.627 194.514 622.673 196.012C615.719 197.51 608.765 198.727 601.811 199.664C594.669 200.6 588.091 201.068 582.077 201.068C569.297 201.068 556.078 199.383 547.056 196.012C538.035 192.829 531.175 187.585 526.477 180.282C521.59 172.978 519.147 163.053 519.147 150.507V55.002H563.471V142.08C563.471 145.638 564.035 148.915 565.162 151.911C566.102 154.907 567.606 157.435 569.673 159.495C571.74 161.743 574.559 163.428 578.13 164.552C581.701 165.862 586.024 166.518 591.099 166.518C595.421 166.518 599.744 165.956 604.067 164.832C608.389 163.896 609.36 162.866 611.615 161.743V55.002H655.939V185.057Z" fill="#070C54"/>
<path fill-rule="evenodd" clip-rule="evenodd" d="M241.006 18C246.086 18 250.241 22.8292 250.241 28.7328V49.2527H267.898C272.976 49.2527 277.132 54.0819 277.132 59.9855C277.132 65.889 272.976 70.7183 267.898 70.7183H250.241V91.2382C250.241 97.1408 246.086 101.971 241.006 101.971C235.926 101.971 231.772 97.1417 231.772 91.2382V70.7183H214.116C209.037 70.7183 204.882 65.889 204.882 59.9855C204.882 54.0819 209.037 49.2527 214.116 49.2527H231.772V28.7328C231.772 22.8302 235.926 18 241.006 18Z" fill="#070C54"/>
<path fill-rule="evenodd" clip-rule="evenodd" d="M174.778 52.286C171.171 48.0948 165.324 48.0948 161.717 52.286C158.11 56.4772 158.111 63.2731 161.717 67.4643L213.412 127.545C228.589 145.184 253.423 145.184 268.6 127.545L320.295 67.4643C323.902 63.2731 323.902 56.4772 320.295 52.286C316.688 48.0948 310.841 48.0948 307.234 52.2869L255.54 112.367C247.571 121.628 234.439 121.628 226.471 112.367L174.777 52.286H174.778Z" fill="#070C54"/>
<path fill-rule="evenodd" clip-rule="evenodd" d="M15.7653 137.63C12.1586 141.821 6.31136 141.821 2.70467 137.63C-0.902024 133.438 -0.901086 126.643 2.70467 122.451L54.3993 62.3714C69.5767 44.733 94.4107 44.733 109.588 62.3714L161.283 122.451C164.889 126.643 164.889 133.438 161.283 137.63C157.676 141.821 151.829 141.821 148.222 137.63L96.5274 77.5497C88.5587 68.2891 75.4268 68.2891 67.459 77.5497L15.7644 137.63H15.7653Z" fill="#070C54"/>
<path fill-rule="evenodd" clip-rule="evenodd" d="M124.784 66.0492C121.177 61.858 121.177 55.0622 124.784 50.87C128.391 46.6788 134.238 46.6788 137.844 50.87L189.538 110.95C204.715 128.589 204.715 157.451 189.538 175.091L137.844 235.171C134.238 239.363 128.39 239.363 124.784 235.171C121.177 230.979 121.177 224.184 124.784 219.991L176.479 159.911C184.447 150.651 184.447 135.388 176.479 126.127L124.784 66.0474V66.0492Z" fill="#070C54"/>
</g>
<defs>
<clipPath id="clip0_5208_6848">
<rect width="1157" height="233" fill="white"/>
</clipPath>
</defs>
</svg>
