<svg width="23" height="23" viewBox="0 0 23 23" fill="none" xmlns="http://www.w3.org/2000/svg">
<path d="M21.3037 0H1.69625C0.766667 0 0 0.737917 0 1.64833V21.3517C0 22.2621 0.766667 23 1.69625 23H21.3037C22.2429 23 23 22.2621 23 21.3517V1.64833C23 0.737917 22.2333 0 21.3037 0ZM6.96708 19.2625H3.49792V8.855H6.96708V19.2625ZM5.24208 7.43667H5.21333C4.04417 7.43667 3.29667 6.64125 3.29667 5.64458C3.29667 4.62875 4.06333 3.8525 5.26125 3.8525C6.44958 3.8525 7.17792 4.61917 7.19708 5.64458C7.19708 6.64125 6.44958 7.43667 5.2325 7.43667H5.24208ZM19.4925 19.2625H16.0137V13.7042C16.0137 12.3146 15.5154 11.3562 14.26 11.3562C13.3017 11.3562 12.7267 11.9983 12.4679 12.6213C12.3721 12.8417 12.3625 13.1483 12.3625 13.4646V19.2625H8.89333C8.89333 19.2625 8.94125 9.85167 8.89333 8.87417H12.3721V10.35C12.6861 9.80499 13.1432 9.3562 13.6938 9.05216C14.2444 8.74812 14.8677 8.60041 15.4963 8.625C17.7867 8.625 19.5021 10.12 19.5021 13.3112V19.2625H19.4925Z" fill="#7F56D9"/>
</svg>
