<svg width="23" height="23" viewBox="0 0 23 23" fill="none" xmlns="http://www.w3.org/2000/svg">
<path d="M1.91797 6.70833V4.79167C1.91797 4.26458 2.1058 3.81353 2.48147 3.4385C2.85714 3.06347 3.30819 2.87564 3.83464 2.875H19.168C19.6951 2.875 20.1464 3.06283 20.5221 3.4385C20.8978 3.81417 21.0853 4.26522 21.0846 4.79167V6.70833H19.168V4.79167H3.83464V6.70833H1.91797ZM7.66797 20.125V18.2083H3.83464C3.30755 18.2083 2.8565 18.0208 2.48147 17.6458C2.10644 17.2708 1.91861 16.8194 1.91797 16.2917V14.375H3.83464V16.2917H19.168V14.375H21.0846V16.2917C21.0846 16.8187 20.8971 17.2701 20.5221 17.6458C20.1471 18.0215 19.6957 18.209 19.168 18.2083H15.3346V20.125H7.66797ZM4.6013 10.5417L7.09297 8.05L5.7513 6.70833L1.91797 10.5417L5.7513 14.375L7.09297 13.0333L4.6013 10.5417ZM18.4013 10.5417L15.9096 13.0333L17.2513 14.375L21.0846 10.5417L17.2513 6.70833L15.9096 8.05L18.4013 10.5417Z" fill="white"/>
</svg>
